# File created by Blade
# Date/Time:  Tue Apr 07 21:25:43 2015
#---------------------------------------------------------
:version 1.10
:name HOM
:units
  mass 1.0
  length 1.000000
  angle deg
:documentation
     Acclaim Skeleton File
:root
   axis xyz
   order TX TY TZ RX RY RZ
   position 0.000000 0.000000 0.000000
   orientation 0 0 0
:bonedata
   begin
      id 1
      name Spine_dum
      direction 0.000000 1.000000 0.000000
      length 4.885285
      axis 0.0 0.0 0.0 xyz
   end
   begin
      id 2
      name LeftUpLeg_dum
      direction 1.000000 0.000000 0.000000
      length 2.672193
      axis 0.0 0.0 0.0 xyz
   end
   begin
      id 3
      name RightUpLeg_dum
      direction -1.000000 0.000000 0.000000
      length 2.672193
      axis 0.0 0.0 0.0 xyz
   end
   begin
      id 4
      name Spine
      direction 0.000000 1.000000 0.000000
      length 0.000000
      axis 0.0 0.0 0.0 xyz
      dof rx ry rz
   end
   begin
      id 5
      name Spine_dum1
      direction 0.000000 1.000000 0.000000
      length 16.494159
      axis 0.0 0.0 0.0 xyz
   end
   begin
      id 6
      name Spine_dum2
      direction 0.000000 1.000000 0.000000
      length 10.663448
      axis 0.0 0.0 0.0 xyz
   end
   begin
      id 7
      name Spine_dum3
      direction 0.000000 1.000000 0.000000
      length 10.663448
      axis 0.0 0.0 0.0 xyz
   end
   begin
      id 8
      name Head
      direction 0.000000 1.000000 0.000000
      length 4.527550
      axis 0.0 0.0 0.0 xyz
      dof rx ry rz
   end
   begin
      id 9
      name LeftShoulder
      direction 1.000000 0.000000 0.000000
      length 7.531907
      axis 0.0 0.0 -90.0 xyz
      dof rx ry rz
   end
   begin
      id 10
      name LeftArm
      direction 1.000000 0.000000 0.000000
      length 10.229199
      axis 0.0 0.0 -90.0 xyz
      dof rx ry rz
   end
   begin
      id 11
      name LeftForeArm
      direction 1.000000 0.000000 0.000000
      length 8.673495
      axis 0.0 0.0 -90.0 xyz
      dof ry rz rx
   end
   begin
      id 12
      name LeftHand
      direction 0.000000 0.000000 0.000000
      length 0.000000
      axis 0.0 0.0 -90.0 xyz
      dof rx ry rz
   end
   begin
      id 13
      name LeftHand_dum1
      direction 0.000000 0.000000 0.000000
      length 0.000000
      axis 0.0 0.0 -90.0 xyz
   end
   begin
      id 14
      name LeftHand_dum2
      direction 1.000000 0.000000 0.000000
      length 3.937000
      axis 0.0 0.0 -90.0 xyz
   end
   begin
      id 15
      name LeftHandThumb1
      direction 0.000000 0.000000 1.000000
      length 3.937000
      axis 0.0 0.0 -90.0 xyz
      dof rx rz ry
   end
   begin
      id 16
      name RightShoulder
      direction -1.000000 0.000000 0.000000
      length 7.531907
      axis 0.0 0.0 90.0 xyz
      dof rx ry rz
   end
   begin
      id 17
      name RightArm
      direction -1.000000 0.000000 0.000000
      length 10.229199
      axis 0.0 0.0 90.0 xyz
      dof rx ry rz
   end
   begin
      id 18
      name RightForeArm
      direction -1.000000 0.000000 0.000000
      length 8.673495
      axis 0.0 0.0 90.0 xyz
      dof ry rz rx
   end
   begin
      id 19
      name RightHand
      direction 0.000000 0.000000 0.000000
      length 0.000000
      axis 0.0 0.0 90.0 xyz
      dof rx ry rz
   end
   begin
      id 20
      name RightHand_dum1
      direction 0.000000 0.000000 0.000000
      length 0.000000
      axis 0.0 0.0 90.0 xyz
   end
   begin
      id 21
      name RightHand_dum2
      direction -1.000000 0.000000 0.000000
      length 3.937000
      axis 0.0 0.0 90.0 xyz
   end
   begin
      id 22
      name RightHandThumb1
      direction 0.000000 0.000000 1.000000
      length 3.937000
      axis 0.0 0.0 90.0 xyz
      dof rx rz ry
   end
   begin
      id 23
      name LeftUpLeg
      direction 0.000000 -1.000000 0.000000
      length 16.263388
      axis 0.0 0.0 0.0 xyz
      dof rx ry rz
   end
   begin
      id 24
      name LeftLeg
      direction 0.000000 -1.000000 0.000000
      length 14.328163
      axis 0.0 0.0 0.0 xyz
      dof rx ry rz
   end
   begin
      id 25
      name LeftFoot
      direction 0.000000 -0.258819 0.965926
      length 5.031290
      axis 15.0 0.0 0.0 xyz
      dof rx ry rz
   end
   begin
      id 26
      name LeftToeBase
      direction 0.000000 0.000000 1.000000
      length 2.952750
      axis 0.0 0.0 0.0 xyz
      dof rx ry rz
   end
   begin
      id 27
      name RightUpLeg
      direction 0.000000 -1.000000 0.000000
      length 16.263388
      axis 0.0 0.0 0.0 xyz
      dof rx ry rz
   end
   begin
      id 28
      name RightLeg
      direction 0.000000 -1.000000 0.000000
      length 14.328163
      axis 0.0 0.0 0.0 xyz
      dof rx ry rz
   end
   begin
      id 29
      name RightFoot
      direction 0.000000 -0.258819 0.965926
      length 5.031290
      axis 15.0 0.0 0.0 xyz
      dof rx ry rz
   end
   begin
      id 30
      name RightToeBase
      direction 0.000000 0.000000 1.000000
      length 2.952750
      axis 0.0 0.0 0.0 xyz
      dof rx ry rz
   end
:hierarchy
   begin
      root Spine_dum LeftUpLeg_dum RightUpLeg_dum
      Spine_dum Spine
      LeftUpLeg_dum LeftUpLeg
      RightUpLeg_dum RightUpLeg
      Spine Spine_dum1 Spine_dum2 Spine_dum3
      Spine_dum1 Head
      Spine_dum2 LeftShoulder
      Spine_dum3 RightShoulder
      LeftShoulder LeftArm
      LeftArm LeftForeArm
      LeftForeArm LeftHand
      LeftHand LeftHand_dum1 LeftHand_dum2
      LeftHand_dum1 LeftHandThumb1
      RightShoulder RightArm
      RightArm RightForeArm
      RightForeArm RightHand
      RightHand RightHand_dum1 RightHand_dum2
      RightHand_dum1 RightHandThumb1
      LeftUpLeg LeftLeg
      LeftLeg LeftFoot
      LeftFoot LeftToeBase
      RightUpLeg RightLeg
      RightLeg RightFoot
      RightFoot RightToeBase
   end

# File created by Blade
# Date/Time:  Tue Apr 07 21:25:57 2015
# Frame Rate: 120.000 fps
#------------------------------------------------------
:FULLY-SPECIFIED
:DEGREES
103
root 3.202072 33.119222 0.856990 8.259194 -1.360497 5.665314
Spine -1.408455 -8.401399 -4.535590
Head 34.668305 8.014361 1.648943
LeftShoulder -23.748626 47.762015 -0.247216
LeftArm 54.967888 -8.458592 -84.900103
LeftForeArm 2.748663 -0.000000 -0.911675
LeftHand 4.996882 0.000000 5.324371
LeftHandThumb1 -26.253704 0.000000 33.147579
RightShoulder -9.302529 -10.777032 -19.726694
RightArm 8.081140 4.258381 84.669350
RightForeArm 2.926173 -0.000000 4.561428
RightHand 4.056315 -0.000000 1.060114
RightHandThumb1 -24.326973 -0.000000 -32.862282
LeftUpLeg -11.008582 -6.085353 14.717153
LeftLeg -0.490267 -0.000000 0.000000
LeftFoot 15.516713 9.495847 -22.837657
LeftToeBase -7.648086 -0.000000 0.000000
RightUpLeg -8.076759 5.893444 -10.764048
RightLeg 12.649590 -0.000000 -0.000000
RightFoot -11.381741 -9.659793 14.385103
RightToeBase -7.806130 -0.000000 0.000000
104
root 3.349910 33.101130 0.912167 8.210928 -2.008228 5.544030
Spine -1.472971 -8.378918 -4.452316
Head 34.613420 7.585699 1.337344
LeftShoulder -23.713866 47.742387 -0.257892
LeftArm 54.673983 -8.198824 -85.146838
LeftForeArm 2.624029 -0.000000 -0.732452
LeftHand 5.036853 -0.000000 5.777167
LeftHandThumb1 -26.253704 0.000000 33.147579
RightShoulder -9.141641 -10.646129 -19.750892
RightArm 8.197212 3.675916 85.179128
RightForeArm 3.138166 -0.000000 4.663150
RightHand 3.839836 -0.000000 1.295417
RightHandThumb1 -24.326973 -0.000000 -32.862282
LeftUpLeg -11.020050 -6.226883 15.336671
LeftLeg -0.168357 -0.000000 0.000000
LeftFoot 15.924933 8.783948 -22.959349
LeftToeBase -7.633990 -0.000000 0.000000
RightUpLeg -8.093616 6.138863 -10.976322
RightLeg 12.594784 -0.000000 -0.000000
RightFoot -11.270819 -9.523166 14.410173
RightToeBase -8.008401 -0.000000 0.000000
105
root 3.498063 33.081554 0.972127 8.134003 -2.690049 5.391261
Spine -1.511600 -8.339667 -4.364683
Head 34.553525 7.299731 1.093686
LeftShoulder -23.711965 47.754314 -0.252608
LeftArm 54.421834 -7.953746 -85.429459
LeftForeArm 2.329530 -0.000000 -0.573212
LeftHand 5.155137 -0.000000 5.986339
LeftHandThumb1 -26.253704 0.000000 33.147579
RightShoulder -8.995750 -10.561307 -19.723435
RightArm 8.396125 3.105588 85.632803
RightForeArm 3.132070 0.000000 4.733493
RightHand 3.728207 -0.000000 1.526411
RightHandThumb1 -24.326973 -0.000000 -32.862282
LeftUpLeg -10.974222 -6.432250 15.996366
LeftLeg 0.200652 -0.000000 -0.000000
LeftFoot 16.241495 8.023679 -23.215178
LeftToeBase -7.683686 -0.000000 0.000000
RightUpLeg -8.069829 6.360727 -11.149185
RightLeg 12.516276 -0.000000 -0.000000
RightFoot -11.115539 -9.361717 14.370627
RightToeBase -8.462445 -0.000000 0.000000
106
root 3.663607 33.061724 1.030456 8.113078 -3.375776 5.326690
Spine -1.611670 -8.282101 -4.348146
Head 34.472224 6.999851 0.901368
LeftShoulder -23.685344 47.806751 -0.227885
LeftArm 54.195686 -7.755386 -85.778294
LeftForeArm 2.090743 -0.000000 -0.335275
LeftHand 5.227514 -0.000000 6.254824
LeftHandThumb1 -26.253704 0.000000 33.147579
RightShoulder -8.913872 -10.469564 -19.668080
RightArm 8.618522 2.490692 85.988038
RightForeArm 3.157055 -0.000000 4.749495
RightHand 3.585194 -0.000000 1.870119
RightHandThumb1 -24.326973 -0.000000 -32.862282
LeftUpLeg -11.030252 -6.466158 16.494317
LeftLeg 0.708385 -0.000000 -0.000000
LeftFoot 16.634310 7.028166 -23.305154
LeftToeBase -7.974471 -0.000000 0.000000
RightUpLeg -8.109586 6.500500 -11.455399
RightLeg 12.420885 -0.000000 -0.000000
RightFoot -10.947725 -9.073406 14.323707
RightToeBase -8.615740 -0.000000 0.000000
107
root 3.826124 33.040059 1.091279 8.072781 -4.061178 5.173750
Spine -1.692100 -8.252436 -4.249607
Head 34.391002 6.750614 0.731341
LeftShoulder -23.604346 47.788115 -0.102866
LeftArm 53.844863 -7.582087 -86.201848
LeftForeArm 2.099594 -0.000000 -0.069252
LeftHand 5.259850 0.000000 6.548747
LeftHandThumb1 -26.253704 0.000000 33.147579
RightShoulder -8.786381 -10.336789 -19.609733
RightArm 8.792039 1.856121 86.290614
RightForeArm 3.172305 -0.000000 4.815493
RightHand 3.460236 0.000000 2.142671
RightHandThumb1 -24.326973 -0.000000 -32.862282
LeftUpLeg -11.016448 -6.852348 17.122244
LeftLeg 1.188477 -0.000000 -0.000000
LeftFoot 16.892282 6.285062 -23.192978
LeftToeBase -8.426585 -0.000000 0.000000
RightUpLeg -8.112918 6.695771 -11.662928
RightLeg 12.287031 -0.000000 -0.000000
RightFoot -10.718210 -8.868621 14.218470
RightToeBase -8.896989 -0.000000 0.000000
108
root 3.994646 33.016962 1.146711 8.082829 -4.773207 5.027350
Spine -1.814488 -8.224792 -4.164925
Head 34.295638 6.463083 0.621831
LeftShoulder -23.603348 47.829274 -0.019925
LeftArm 53.604553 -7.427887 -86.657108
LeftForeArm 1.972957 -0.000000 0.191168
LeftHand 5.335561 -0.000000 6.615933
LeftHandThumb1 -26.253704 0.000000 33.147579
RightShoulder -8.669345 -10.240355 -19.508301
RightArm 9.052219 1.107532 86.502701
RightForeArm 3.283004 -0.000000 4.853900
RightHand 3.291734 -0.000000 2.283242
RightHandThumb1 -24.326973 -0.000000 -32.862282
LeftUpLeg -11.033880 -7.432038 17.742772
LeftLeg 1.670738 -0.000000 -0.000000
LeftFoot 17.018570 5.883954 -22.890016
LeftToeBase -8.779097 -0.000000 0.000000
RightUpLeg -8.209687 6.916360 -11.899986
RightLeg 12.199905 -0.000000 -0.000000
RightFoot -10.518307 -8.662161 14.149484
RightToeBase -9.162948 -0.000000 0.000000
109
root 4.171435 32.994136 1.206503 8.077923 -5.525619 4.896928
Spine -1.933811 -8.178680 -4.098045
Head 34.206451 6.157466 0.525845
LeftShoulder -23.639109 47.901445 0.029927
LeftArm 53.386057 -7.166679 -86.999742
LeftForeArm 2.155646 0.000000 0.447339
LeftHand 5.160542 -0.000000 6.269848
LeftHandThumb1 -26.253704 0.000000 33.147579
RightShoulder -8.552453 -10.170956 -19.375258
RightArm 9.360710 0.392541 86.648713
RightForeArm 3.329986 -0.000000 4.856426
RightHand 3.169537 -0.000000 2.550095
RightHandThumb1 -24.326973 -0.000000 -32.862282
LeftUpLeg -11.029171 -7.931256 18.299235
LeftLeg 2.235560 -0.000000 -0.000000
LeftFoot 17.124075 5.305212 -22.227874
LeftToeBase -9.431853 -0.000000 0.000000
RightUpLeg -8.285028 7.116164 -12.161992
RightLeg 12.071027 -0.000000 -0.000000
RightFoot -10.273231 -8.474719 14.029218
RightToeBase -9.461857 -0.000000 0.000000
110
root 4.348746 32.970062 1.270471 8.067041 -6.271530 4.720929
Spine -2.047231 -8.116399 -3.995656
Head 34.107912 5.777364 0.465661
LeftShoulder -23.563574 47.929658 0.187720
LeftArm 53.073209 -6.916058 -87.287589
LeftForeArm 2.057340 -0.000000 0.759713
LeftHand 5.089166 0.000000 6.207824
LeftHandThumb1 -26.253704 0.000000 33.147579
RightShoulder -8.453369 -10.091174 -19.203130
RightArm 9.636786 -0.315448 86.722399
RightForeArm 3.424077 -0.000000 4.892263
RightHand 3.055561 -0.000000 2.799046
RightHandThumb1 -24.326973 -0.000000 -32.862282
LeftUpLeg -10.998654 -8.390745 18.860951
LeftLeg 2.837968 -0.000000 -0.000000
LeftFoot 17.183999 4.630603 -21.154038
LeftToeBase -10.364338 -0.000000 0.000000
RightUpLeg -8.351386 7.277197 -12.375795
RightLeg 11.949449 -0.000000 -0.000000
RightFoot -10.002980 -8.252914 13.886924
RightToeBase -9.724728 -0.000000 0.000000
111
root 4.539693 32.945696 1.330272 8.069049 -7.035314 4.596851
Spine -2.167321 -8.101186 -3.930919
Head 34.004530 5.413529 0.407555
LeftShoulder -23.584711 48.005900 0.239215
LeftArm 52.859910 -6.625917 -87.506026
LeftForeArm 1.926553 -0.000000 1.022457
LeftHand 5.175980 -0.000000 6.707606
LeftHandThumb1 -26.253704 0.000000 33.147579
RightShoulder -8.331774 -9.992817 -19.023568
RightArm 9.953656 -1.117738 86.708129
RightForeArm 3.556850 0.000000 4.932820
RightHand 2.782935 -0.000000 3.300937
RightHandThumb1 -24.326973 -0.000000 -32.862282
LeftUpLeg -10.966978 -8.998725 19.351177
LeftLeg 3.450490 -0.000000 -0.000000
LeftFoot 17.076344 4.081529 -19.908854
LeftToeBase -11.687205 -0.000000 0.000000
RightUpLeg -8.459349 7.502557 -12.669976
RightLeg 11.833754 -0.000000 -0.000000
RightFoot -9.731233 -8.137020 13.749508
RightToeBase -9.987978 -0.000000 0.000000
112
root 4.730978 32.920803 1.389550 8.096513 -7.819377 4.411077
Spine -2.298989 -7.976086 -3.821812
Head 33.880804 4.901418 0.401024
LeftShoulder -23.428352 48.076284 0.440036
LeftArm 52.622933 -6.258198 -87.626731
LeftForeArm 1.683250 0.000000 1.304078
LeftHand 5.204903 0.000000 7.155017
LeftHandThumb1 -26.253704 0.000000 33.147579
RightShoulder -8.305062 -9.952691 -18.788850
RightArm 10.289488 -1.850380 86.649236
RightForeArm 3.834188 0.000000 4.985954
RightHand 2.692264 -0.000000 3.603036
RightHandThumb1 -24.326973 -0.000000 -32.862282
LeftUpLeg -10.936288 -9.645133 19.893475
LeftLeg 4.079012 -0.000000 -0.000000
LeftFoot 16.753295 3.718225 -19.305618
LeftToeBase -12.585995 -0.000000 0.000000
RightUpLeg -8.632818 7.479845 -12.885704
RightLeg 11.775204 -0.000000 -0.000000
RightFoot -9.382201 -7.822313 13.543391
RightToeBase -10.372302 -0.000000 0.000000
